<svg xmlns="http://www.w3.org/2000/svg" xmlns:xlink="http://www.w3.org/1999/xlink" width="0" height="0">

  <symbol id="logo" viewBox="0 0 102 18">
    <path fill="currentColor" d="M32.11,2.62v7.57c0,2.15-0.7,3.88-2.08,5.13c-1.36,1.24-2.84,1.88-5.03,1.88c-2.21,0-3.69-0.62-5.05-1.86 c-1.37-1.24-2.06-2.97-2.06-5.14V2.62c0-1.02,0.56-1.62,1.5-1.62c0.38,0,0.72,0.13,1.02,0.38c0.32,0.27,0.48,0.68,0.48,1.21v7.52 c0,1.35,0.36,2.36,1.1,3.06c0.74,0.7,1.53,1.05,3,1.05c1.47,0,2.26-0.36,3-1.05c0.74-0.7,1.1-1.71,1.1-3.06V2.59 c0-1,0.57-1.59,1.53-1.59C31.56,1,32.11,1.61,32.11,2.62z M12.79,1H2.21C1.64,1,1.2,1.16,0.91,1.47C0.64,1.76,0.5,2.11,0.5,2.49 c0,0.39,0.14,0.73,0.41,1.02c0.29,0.31,0.72,0.47,1.3,0.47h3.65V15.4c0,0.57,0.18,0.99,0.54,1.25C6.71,16.89,7.08,17,7.49,17 c0.4,0,0.78-0.12,1.12-0.35C8.87,16.46,9.2,16.1,9.2,15.4V3.98h3.59c1.54,0,1.71-1.02,1.71-1.46C14.5,1.55,13.88,1,12.79,1z M95.6,7.95c-1.68,0-1.87,1.06-1.87,1.52c0,0.44,0.18,1.47,1.87,1.47h2.43v2.19c0,0.57-0.1,0.7-0.1,0.7c0,0-0.12,0.1-0.62,0.1 h-4.13c-2.09,0-2.57,0.07-2.92-0.14c-0.42-0.25-0.51-9.65,0.07-9.97c0.33-0.18,1.32-0.16,3.07-0.15h0.96h3.32h1.32 c1.69,0,1.87-0.71,1.87-1.17c0-0.44-0.18-1.47-1.87-1.47h-5.59v0c-2.14,0.02-3.89,0.12-4.9,0.74C87.27,2.53,87,4.33,87,6.51v4.95 c0,2.13,0.24,3.93,1.41,4.7c1.12,0.74,2.42,0.78,4.76,0.78h4.33c1.35,0,2.28-0.36,2.79-1.08c0.47-0.66,0.71-1.53,0.71-2.58V7.95 H95.6z M80.39,1c-0.44,0-1.47,0.17-1.47,1.74v8.83l-8.95-9.73c-0.49-0.69-1.07-0.83-1.46-0.83c-0.44,0-1.45,0.16-1.45,1.66v12.7 c0,1.02,0.56,1.63,1.5,1.63s1.5-0.58,1.5-1.55V6.47l9.2,10.13c0.26,0.36,0.77,0.4,1.18,0.4c0.92,0,1.47-0.61,1.47-1.63V2.66 C81.92,1.6,81.37,1,80.39,1z M49.04,10.18c0.55,0.53,1.49,2.37,1.74,3.36c0.34,1.34,0.39,1.7,0.39,1.88c0,0.42-0.14,0.78-0.42,1.09 c-0.29,0.33-0.67,0.5-1.11,0.5c-0.61,0-0.94-0.29-1.12-0.54c-0.21-0.29-0.33-0.64-0.35-1.03c-0.01-0.19-0.09-0.63-0.38-1.72 c-0.24-0.87-0.41-0.71-1.03-1.96c-0.56-1.13-0.71-0.83-1.33-0.94H41v4.6c0,1-0.57,1.59-1.53,1.59C38.55,17,38,16.4,38,15.41V2.7 C38,1.16,39.01,1,39.45,1h5.16c2.34,0,4.05,0.33,5.22,0.99c1.25,0.71,1.88,2,1.88,3.82C51.7,7.93,50.79,9.43,49.04,10.18z M48.7,5.89c0-1.19-0.52-1.43-0.69-1.51c-0.4-0.19-1.32-0.41-3.4-0.41H41v3.87h3.61c2.12,0,3.03-0.22,3.42-0.42 C48.19,7.34,48.7,7.09,48.7,5.89z M59.5,1C58.67,1,58,1.67,58,2.5v13c0,0.83,0.67,1.5,1.5,1.5s1.5-0.67,1.5-1.5v-13 C61,1.67,60.33,1,59.5,1z"/>
  </symbol>

  <symbol id="sidebar-compose" viewBox="0 0 24 24">
    <path fill="currentColor" d="M17.93,6.07c-1.15-1.15-3.03-1.16-4.18,0c-0.67,0.67-7.67,7.67-7.67,7.67L5,19l5.27-1.08c0,0,7-7,7.67-7.67 C19.09,9.09,19.09,7.22,17.93,6.07z M9.57,16.52l-2.83,0.74l0.74-2.83l6.05-6.05l2.09,2.09L9.57,16.52z M16.89,9.2l-0.42,0.42 l-2.09-2.09l0.42-0.42c0.58-0.58,1.51-0.58,2.09,0C17.46,7.69,17.46,8.63,16.89,9.2z"/>
  </symbol>

  <symbol id="sidebar-inbox" viewBox="0 0 24 24">
    <path fill="currentColor" d="M18,13.02l-2-0.01c0,0,0,0-0.01,0c-0.55,0-1.1,0.43-1.24,0.96l-0.01,0.06C14.61,14.56,14.05,15,13.5,15h-3 c-0.55,0-1.11-0.44-1.24-0.97l-0.01-0.06C9.11,13.44,8.55,13,8,13H6c-0.55,0-1,0.45-1,1v4c0,0.55,0.45,1,1,1h12c0.55,0,1-0.45,1-1 v-3.98C19,13.47,18.55,13.02,18,13.02z M17.4,17.4H6.6v-2.8h1.16c0.38,1.15,1.52,2,2.74,2h3c1.21,0,2.35-0.84,2.74-1.99l1.16,0 V17.4z M8.97,10.03c-0.29-0.29-0.29-0.77,0-1.06s0.77-0.29,1.06,0l1.17,1.17V5.8C11.2,5.36,11.56,5,12,5s0.8,0.36,0.8,0.8v4.34 l1.17-1.17c0.29-0.29,0.77-0.29,1.06,0s0.29,0.77,0,1.06l-2.5,2.5c-0.15,0.15-0.34,0.22-0.53,0.22s-0.38-0.07-0.53-0.22L8.97,10.03 z"/>
  </symbol>

  <symbol id="sidebar-scheduled" viewBox="0 0 24 24">
    <path fill="currentColor" d="M7,18v-2h10c-0.02,0.03-2,2-2,2H7z M7,15h10v-2H7V15z M17,10H7v2h10V10z M19,9V7 h-3V5h-2v2h-4V5H8v2H5v2H19z"/>
  </symbol>

  <symbol id="sidebar-sent" viewBox="0 0 24 24">
    <path fill="currentColor" d="M18,13.02l-2-0.01c0,0,0,0-0.01,0c-0.55,0-1.1,0.43-1.23,0.96l-0.02,0.06C14.61,14.56,14.05,15,13.5,15h-3 c-0.55,0-1.11-0.44-1.24-0.97l-0.02-0.06C9.11,13.44,8.55,13,8,13H6c-0.55,0-1,0.45-1,1v4c0,0.55,0.45,1,1,1h12c0.55,0,1-0.45,1-1 v-3.98C19,13.47,18.55,13.02,18,13.02z M17.4,17.4H6.6v-2.8h1.16c0.38,1.15,1.52,2,2.74,2h3c1.22,0,2.37-0.85,2.74-1.99l1.16,0 V17.4z M8.97,9.03c-0.29-0.29-0.29-0.77,0-1.06l2.5-2.5c0.29-0.29,0.77-0.29,1.06,0l2.5,2.5c0.29,0.29,0.29,0.77,0,1.06 c-0.15,0.15-0.34,0.22-0.53,0.22s-0.38-0.07-0.53-0.22L12.8,7.86v4.34c0,0.44-0.36,0.8-0.8,0.8s-0.8-0.36-0.8-0.8V7.86l-1.17,1.17 C9.74,9.32,9.26,9.32,8.97,9.03z"/>
  </symbol>

  <symbol id="sidebar-tracked" viewBox="0 0 24 24">
    <path fill="currentColor" d="M12,5.75c3.45,0,6.25,2.8,6.25,6.25s-2.8,6.25-6.25,6.25S5.75,15.45,5.75,12S8.55,5.75,12,5.75 M12,4.25 c-4.28,0-7.75,3.47-7.75,7.75s3.47,7.75,7.75,7.75s7.75-3.47,7.75-7.75S16.28,4.25,12,4.25L12,4.25z M15.75,12 c0-0.41-0.34-0.75-0.75-0.75h-2.75c-0.41,0-0.75,0.34-0.75,0.75s0.34,0.75,0.75,0.75H15C15.41,12.75,15.75,12.41,15.75,12z M15.75,9c0-0.41-0.34-0.75-0.75-0.75h-2.75c-0.41,0-0.75,0.34-0.75,0.75s0.34,0.75,0.75,0.75H15C15.41,9.75,15.75,9.41,15.75,9z M15.75,15c0-0.41-0.34-0.75-0.75-0.75h-2.75c-0.41,0-0.75,0.34-0.75,0.75s0.34,0.75,0.75,0.75H15 C15.41,15.75,15.75,15.41,15.75,15z M10.38,15.92C10.76,15.77,11,15.4,11,15V9c0-0.55-0.45-1-1-1S9,8.45,9,9v3.59l-0.79-0.79 c-0.39-0.39-1.02-0.39-1.41,0s-0.39,1.02,0,1.41l2.5,2.5C9.48,15.9,9.74,16,10,16C10.13,16,10.26,15.98,10.38,15.92z"/>
  </symbol>

  <symbol id="sidebar-drafts" viewBox="0 0 24 24">
    <path fill="currentColor" d="M16,3c-0.5,0-2,0-2,0v2c0,0-7.41,0-8,0S5,5.47,5,6s0,12.39,0,13s0.41,1,1,1 s9.5,0,10,0c2,0,3-1,3-3c0-0.5,0-10.5,0-11C19,4,18,3,16,3z M15.6,4.6H16c1.11,0,1.4,0.29,1.4,1.4v9.31 c-0.58-0.38-1.21-0.61-1.8-0.74V4.6z M16,18.4H6.6V6.6H14c0,3.62,0,8.76,0,9.4c1.86,0,2.84,0.65,3.38,1.44 C17.29,18.19,16.95,18.4,16,18.4z M9,8h4v2H9c-0.55,0-1-0.45-1-1S8.45,8,9,8z M9,11h4v2H9c-0.55,0-1-0.45-1-1S8.45,11,9,11z"/>
  </symbol>

  <symbol id="sidebar-trash" viewBox="0 0 24 24">
    <path fill="currentColor" d="M17.4,8c0-0.22-0.18-0.4-0.4-0.4h-2.36l-0.26-1.28C14.3,5.9,13.93,5.6,13.5,5.6 h-3c-0.43,0-0.8,0.3-0.88,0.72L9.36,7.6H7C6.78,7.6,6.6,7.78,6.6,8S6.78,8.4,7,8.4h0.6V17c0,0.77,0.63,1.4,1.4,1.4h6 c0.77,0,1.4-0.63,1.4-1.4v-5H18v5c0,1.65-1.35,3-3,3H9c-1.65,0-3-1.35-3-3V9.72C5.41,9.38,5,8.74,5,8c0-1.1,0.9-2,2-2h1.05 c0.24-1.16,1.27-2,2.45-2h3c1.18,0,2.21,0.84,2.45,2H17c1.1,0,2,0.9,2,2s-0.9,2-2,2h-6V8.4h6C17.22,8.4,17.4,8.22,17.4,8z"/>
  </symbol>

  <symbol id="compose-address" viewBox="0 0 24 24">
    <path fill="currentColor" d="M17.5,4h-10C6.12,4,5,5.12,5,6.5V7h1c0.55,0,1,0.45,1,1S6.55,9,6,9H5v2h1c0.55,0,1,0.45,1,1s-0.45,1-1,1H5v2h1 c0.55,0,1,0.45,1,1s-0.45,1-1,1H5v0.5C5,18.88,6.12,20,7.5,20h10c1.38,0,2.5-1.12,2.5-2.5v-11C20,5.12,18.88,4,17.5,4z M13,17 c-2.2,0-5-0.31-5-1c0-0.36,0.44-0.88,1.89-1.4c1.44-0.51,1.9-0.95,1.9-1.88c0-0.56-0.44-0.37-0.63-1.4 c-0.08-0.43-0.47-0.01-0.55-0.97c0-0.39,0.21-0.48,0.21-0.48s-0.11-0.57-0.15-1.01C10.62,8.31,11,7,13,7s2.38,1.31,2.33,1.86 c-0.04,0.44-0.15,1.01-0.15,1.01s0.21,0.1,0.21,0.48c-0.08,0.97-0.46,0.55-0.55,0.97c-0.19,1.02-0.63,0.84-0.63,1.4 c0,0.93,0.46,1.37,1.9,1.88C17.56,15.12,18,15.64,18,16C18,16.69,15.2,17,13,17z M5,11v2H4c-0.55,0-1-0.45-1-1s0.45-1,1-1H5z M5,7 v2H4C3.45,9,3,8.55,3,8s0.45-1,1-1H5z M5,15v2H4c-0.55,0-1-0.45-1-1s0.45-1,1-1H5z"/>
  </symbol>

  <symbol id="compose-archive" viewBox="0 0 24 24">
    <path fill="currentColor" d="M17,5H7C5.9,5,5,5.9,5,7v10c0,1.1,0.9,2,2,2h10c1.1,0,2-0.9,2-2V7C19,5.9,18.1,5,17,5z M7,6.6h10c0.22,0,0.4,0.18,0.4,0.4 v4.5H6.6V7C6.6,6.78,6.78,6.6,7,6.6z M17,17.4H7c-0.22,0-0.4-0.18-0.4-0.4v-4.5h10.8V17C17.4,17.22,17.22,17.4,17,17.4z M9.5,8.5h1 C10.5,8.78,10.72,9,11,9h2c0.28,0,0.5-0.22,0.5-0.5h1c0,0.83-0.67,1.5-1.5,1.5h-2C10.17,10,9.5,9.33,9.5,8.5z M13.5,14.5h1 c0,0.83-0.67,1.5-1.5,1.5h-2c-0.83,0-1.5-0.67-1.5-1.5h1c0,0.28,0.22,0.5,0.5,0.5h2C13.28,15,13.5,14.78,13.5,14.5z"/>
  </symbol>

  <symbol id="compose-send" viewBox="0 0 24 24">
    <path fill="currentColor" d="M22,6H8C7.45,6,7,6.45,7,7v10c0,0.55,0.45,1,1,1h14c0.55,0,1-0.45,1-1V7 C23,6.45,22.55,6,22,6z M18.35,12.65c-0.2-0.2-0.51-0.2-0.71,0s-0.2,0.51,0,0.71l3.05,3.05H9.31l3.05-3.05c0.2-0.2,0.2-0.51,0-0.71 s-0.51-0.2-0.71,0L8.6,15.69V8.31l5.03,5.03C13.69,13.4,14.25,14,15,14s1.31-0.6,1.35-0.65l5.05-5.05v7.39L18.35,12.65z M9.31,7.6 h11.39l-5.06,5.06C15.57,12.73,15.27,13,15,13c-0.26,0-0.55-0.25-0.65-0.35L9.31,7.6z M2,11h4v2H2c-0.55,0-1-0.45-1-1S1.45,11,2,11 z M1,7h5v2H1C0.45,9,0,8.55,0,8S0.45,7,1,7z M3,15h3v2H3c-0.55,0-1-0.45-1-1S2.45,15,3,15z"/>
  </symbol>

  <symbol id="compose-subject" viewBox="0 0 24 24">
    <path fill="currentColor" d="M19.2,9.4L18,8.5V7l-3-3H6v4.5L4.8,9.4C4.36,9.73,4,10.45,4,11v8 c0,0.55,0.45,1,1,1h14c0.55,0,1-0.45,1-1v-8C20,10.45,19.64,9.73,19.2,9.4z M18.6,10.2c0.15,0.11,0.31,0.4,0.37,0.64L18,11.45v-1.7 L18.6,10.2z M5.4,10.2L6,9.75v1.71l-0.97-0.62C5.09,10.6,5.25,10.31,5.4,10.2z M19.35,19.35c-0.1,0.1-0.23,0.15-0.35,0.15 s-0.26-0.05-0.35-0.15l-6.29-6.29c-0.2-0.2-0.51-0.2-0.71,0l-6.29,6.29c-0.2,0.2-0.51,0.2-0.71,0s-0.2-0.51,0-0.71l4.92-4.92 L7,12.09V5h7v3h3v4.09l-2.57,1.63l4.92,4.92C19.55,18.84,19.55,19.16,19.35,19.35z"/>
  </symbol>

  <symbol id="compose-save" viewBox="0 0 24 24">
    <path fill="currentColor" d="M9.63,13.34C9.69,13.4,10.25,14,11,14s1.31-0.6,1.35-0.65l5.05-5.05v1.72 C17.6,10.01,17.8,10,18,10c0.34,0,0.67,0.04,1,0.09V7c0-0.55-0.45-1-1-1H4C3.45,6,3,6.45,3,7v10c0,0.55,0.45,1,1,1h8.35 c-0.18-0.51-0.29-1.04-0.33-1.6H5.31l3.05-3.05c0.2-0.2,0.2-0.51,0-0.71s-0.51-0.2-0.71,0L4.6,15.69V8.31L9.63,13.34z M11.63,12.66 C11.57,12.73,11.27,13,11,13c-0.26,0-0.55-0.25-0.65-0.35L5.31,7.6h11.39L11.63,12.66z M18,11c-2.76,0-5,2.24-5,5s2.24,5,5,5 s5-2.24,5-5S20.76,11,18,11z M21.1,14.45l-3,4c-0.13,0.17-0.33,0.28-0.55,0.3c-0.02,0-0.04,0-0.05,0c-0.2,0-0.39-0.08-0.53-0.22 l-2-2c-0.29-0.29-0.29-0.77,0-1.06s0.77-0.29,1.06,0l1.39,1.39l2.48-3.31c0.25-0.33,0.72-0.4,1.05-0.15 C21.28,13.65,21.35,14.12,21.1,14.45z"/>
  </symbol>

  <symbol id="compose-delete" viewBox="0 0 24 24">
    <path fill="currentColor" d="M9.63,13.34C9.69,13.4,10.25,14,11,14s1.31-0.6,1.35-0.65l5.05-5.05v1.72 C17.6,10.01,17.8,10,18,10c0.34,0,0.67,0.04,1,0.09V7c0-0.55-0.45-1-1-1H4C3.45,6,3,6.45,3,7v10c0,0.55,0.45,1,1,1h8.35 c-0.18-0.51-0.29-1.04-0.33-1.6H5.31l3.05-3.05c0.2-0.2,0.2-0.51,0-0.71s-0.51-0.2-0.71,0L4.6,15.69V8.31L9.63,13.34z M11.63,12.66 C11.57,12.73,11.27,13,11,13c-0.26,0-0.55-0.25-0.65-0.35L5.31,7.6h11.39L11.63,12.66z M18,11c-2.76,0-5,2.24-5,5s2.24,5,5,5 s5-2.24,5-5S20.76,11,18,11z M20.78,17.72c0.29,0.29,0.29,0.77,0,1.06C20.63,18.93,20.44,19,20.25,19s-0.38-0.07-0.53-0.22 L18,17.06l-1.72,1.72c-0.29,0.29-0.77,0.29-1.06,0s-0.29-0.77,0-1.06L16.94,16l-1.72-1.72c-0.29-0.29-0.29-0.77,0-1.06 s0.77-0.29,1.06,0L18,14.94l1.72-1.72c0.29-0.29,0.77-0.29,1.06,0s0.29,0.77,0,1.06L19.06,16L20.78,17.72z"/>
  </symbol>

  <symbol id="attachment" viewBox="0 0 16 16">
    <path fill="currentColor" d="M8,14c-1.92,0-4-1.48-4-3.86V4.7C4,3.16,5.07,2,6.5,2S9,3.16,9,4.7v5.44c0,0.41-0.34,0.75-0.75,0.75S7.5,10.55,7.5,10.14 V4.7c0-0.7-0.41-1.2-1-1.2s-1,0.49-1,1.2v5.44c0,1.46,1.3,2.36,2.5,2.36s2.5-0.9,2.5-2.36V2.75C10.5,2.34,10.84,2,11.25,2 S12,2.34,12,2.75v7.39C12,12.52,9.92,14,8,14z"/>
  </symbol>

  <symbol id="pause" viewBox="0 0 16 16">
    <path fill="currentColor" d="M3.02,2H6v12H3.02V2z M10.04,2v12H13V2H10.04z"/>
  </symbol>

  <symbol id="mark-read" viewBox="0 0 16 16">
    <path fill="currentColor" d="M14.19,4.42L8.81,0.58C8.59,0.42,8.29,0.34,8,0.34S7.41,0.42,7.19,0.58L1.81,4.42C1.37,4.74,1,5.45,1,6v1v6 c0,0.55,0.45,1,1,1h12c0.55,0,1-0.45,1-1V7V6C15,5.45,14.63,4.74,14.19,4.42z M13.75,6v6.18l-2.47-2.47 c-0.16-0.16-0.41-0.16-0.57,0s-0.16,0.41,0,0.57l2.47,2.47H2.82l2.47-2.47c0.16-0.16,0.16-0.41,0-0.57s-0.41-0.16-0.57,0 l-2.47,2.47V6c0-0.03,0.02-0.07,0.03-0.11l5.4,4.5C7.77,10.46,7.89,10.5,8,10.5s0.23-0.04,0.32-0.12l5.4-4.5 C13.73,5.93,13.75,5.97,13.75,6z M7.77,1.4C7.79,1.38,7.87,1.34,8,1.34s0.21,0.04,0.23,0.05l5.01,3.58L8,9.35L2.75,4.98L7.77,1.4z"/>
  </symbol>

  <symbol id="mark-unread" viewBox="0 0 16 16">
    <path fill="currentColor" d="M14,3H2C1.45,3,1,3.45,1,4v8c0,0.55,0.45,1,1,1h12c0.55,0,1-0.45,1-1V4C15,3.45,14.55,3,14,3z M13.75,11.18l-2.47-2.47 c-0.16-0.16-0.41-0.16-0.57,0s-0.16,0.41,0,0.57l2.47,2.47H2.82l2.47-2.47c0.16-0.16,0.16-0.41,0-0.57s-0.41-0.16-0.57,0 l-2.47,2.47V4.86l5.43,4.52C7.77,9.46,7.89,9.5,8,9.5s0.23-0.04,0.32-0.12l5.43-4.52V11.18z M3.08,4.25h9.84L8,8.35L3.08,4.25z"/>
  </symbol>

  <symbol id="refresh" viewBox="0 0 16 16">
    <path fill="currentColor" d="M12.83,9.21l0.98,0.25C13.16,12.06,10.81,14,8,14c-1.66,0-3.15-0.68-4.23-1.77 L2,14V9h5l-2.52,2.52C5.38,12.43,6.62,13,8,13C10.34,13,12.29,11.38,12.83,9.21z M12.23,3.77C11.15,2.68,9.66,2,8,2 C5.19,2,2.84,3.94,2.18,6.55l0.98,0.25C3.71,4.62,5.66,3,8,3c1.38,0,2.62,0.57,3.52,1.48L9,7h5V2L12.23,3.77z"/>
  </symbol>

  <symbol id="clock" viewBox="0 0 16 16">
    <path fill="currentColor" d="M13,8.5C13,5.46,10.54,3,7.5,3S2,5.46,2,8.5c0,1.63,0.71,3.09,1.84,4.09 l-0.75,1.13c-0.15,0.23-0.09,0.54,0.14,0.69C3.31,14.47,3.4,14.5,3.5,14.5c0.16,0,0.32-0.08,0.42-0.22l0.72-1.09 C5.47,13.7,6.45,14,7.5,14s2.03-0.3,2.86-0.81l0.72,1.09c0.1,0.14,0.25,0.22,0.42,0.22c0.1,0,0.19-0.03,0.28-0.08 c0.23-0.15,0.29-0.46,0.14-0.69l-0.75-1.13C12.29,11.59,13,10.13,13,8.5z M3,8.5C3,6.02,5.02,4,7.5,4S12,6.02,12,8.5 S9.98,13,7.5,13S3,10.98,3,8.5z M9.85,10.15c0.2,0.2,0.2,0.51,0,0.71C9.76,10.95,9.63,11,9.5,11s-0.26-0.05-0.35-0.15L7,8.71V5.5 C7,5.22,7.22,5,7.5,5S8,5.22,8,5.5v2.79L9.85,10.15z M13.68,5.64l-3.31-3.31c0.92-0.92,2.4-0.92,3.31,0 C14.6,3.24,14.6,4.73,13.68,5.64z M4.64,2.33L1.33,5.64c-0.91-0.92-0.91-2.4,0-3.31C2.24,1.41,3.73,1.41,4.64,2.33z"/>
  </symbol>

  <symbol id="archive" viewBox="0 0 16 16">
    <path fill="currentColor" d="M12,2H4C2.9,2,2,2.9,2,4v9c0,1.1,0.9,2,2,2h8c1.1,0,2-0.9,2-2V4C14,2.9,13.1,2,12,2z M4,3.25h8c0.41,0,0.75,0.34,0.75,0.75 v4h-9.5V4C3.25,3.59,3.59,3.25,4,3.25z M12,13.75H4c-0.41,0-0.75-0.34-0.75-0.75V9h9.5v4C12.75,13.41,12.41,13.75,12,13.75z M5.5,4.5h1C6.5,4.78,6.72,5,7,5h2c0.28,0,0.5-0.22,0.5-0.5h1C10.5,5.33,9.83,6,9,6H7C6.17,6,5.5,5.33,5.5,4.5z M9.5,10.5h1 c0,0.83-0.67,1.5-1.5,1.5H7c-0.83,0-1.5-0.67-1.5-1.5h1C6.5,10.78,6.72,11,7,11h2C9.28,11,9.5,10.78,9.5,10.5z"/>
  </symbol>

  <symbol id="tag" viewBox="0 0 16 16">
    <path fill="currentColor" d="M7,15.12c-0.16,0-0.32-0.06-0.44-0.18l-5.5-5.5c-0.24-0.24-0.24-0.64,0-0.88l5.5-5.5C6.67,2.94,6.83,2.88,7,2.88h3 c0.34,0,0.62,0.28,0.62,0.62S10.34,4.12,10,4.12H7.26L2.38,9L7,13.62l4.88-4.88V6c0-0.34,0.28-0.62,0.62-0.62S13.12,5.66,13.12,6v3 c0,0.17-0.07,0.33-0.18,0.44l-5.5,5.5C7.32,15.06,7.16,15.12,7,15.12z M11.85,4.85L13.71,3h0.79C14.78,3,15,2.78,15,2.5 S14.78,2,14.5,2h-1c-0.13,0-0.26,0.05-0.35,0.15l-2,2c-0.2,0.2-0.2,0.51,0,0.71C11.24,4.95,11.37,5,11.5,5S11.76,4.95,11.85,4.85z M10,5C9.45,5,9,5.45,9,6s0.45,1,1,1s1-0.45,1-1S10.55,5,10,5z"/>
  </symbol>

  <symbol id="folder" viewBox="0 0 16 16">
    <path fill="currentColor" d="M13,14H3c-0.77,0-1.23-0.31-1.48-0.57C0.97,12.84,1,12.05,1,11.96l0-9.34C1,2.28,1.28,2,1.62,2H7.5 c0.34,0,0.62,0.28,0.62,0.62V4h6.25C14.72,4,15,4.28,15,4.62V12C15,13.21,14.21,14,13,14z M4.96,12.75H13 c0.53,0,0.75-0.22,0.75-0.75V5.25H5.12V12C5.12,12.23,5.06,12.49,4.96,12.75z M2.25,3.25V12c0,0.12,0.02,0.41,0.18,0.57 c0.12,0.12,0.3,0.18,0.57,0.18c0.81,0,0.87-0.64,0.88-0.77V4.62C3.88,4.28,4.16,4,4.5,4h2.38V3.25H2.25z"/>
  </symbol>

  <symbol id="trash" viewBox="0 0 16 16">
    <path fill="currentColor" d="M12.7,5.5c0-0.11-0.22-0.33-0.58-0.33h-1.87l-0.2-1.19C9.99,3.6,9.53,3.3,9,3.3H7 c-0.53,0-0.99,0.3-1.06,0.68l-0.2,1.19H3.88C3.52,5.17,3.3,5.39,3.3,5.5c0,0.08,0.12,0.22,0.33,0.28V5.8h0.62V12 c0,0.96,0.79,1.75,1.75,1.75h4c0.96,0,1.75-0.79,1.75-1.75V8.62H13V12c0,1.65-1.35,3-3,3H6c-1.65,0-3-1.35-3-3V6.88 C2.43,6.61,2.05,6.09,2.05,5.5c0-0.87,0.82-1.58,1.83-1.58h0.81l0.02-0.15C4.87,2.79,5.86,2.05,7,2.05h2 c1.14,0,2.13,0.74,2.29,1.73l0.02,0.15h0.81c1.01,0,1.83,0.71,1.83,1.58s-0.82,1.58-1.83,1.58H7V5.83h5.12 C12.48,5.83,12.7,5.61,12.7,5.5z"/>
  </symbol>

  <symbol id="return" viewBox="0 0 16 16">
    <path fill="currentColor" d="M14,13c-1.79-3.25-3-4-5.5-4C7.32,9,5.97,9,5.06,9l2.47,2.47 c0.29,0.29,0.29,0.77,0,1.06C7.38,12.68,7.19,12.75,7,12.75s-0.38-0.07-0.53-0.22l-4-4c-0.29-0.29-0.29-0.77,0-1.06l4-4 c0.29-0.29,0.77-0.29,1.06,0s0.29,0.77,0,1.06L5.06,7C5.81,7,6.95,7,8.5,7C12,7,14,10,14,13z"/>
  </symbol>

  <symbol id="edit" viewBox="0 0 16 16">
    <path fill="currentColor" d="M15.3,0.7C14.83,0.23,14.22,0,13.58,0c-0.69,0-1.39,0.27-1.93,0.82 c-0.6,0.6-6.92,6.92-6.92,6.92l-0.75,4.28l4.28-0.75c0,0,6.31-6.31,6.92-6.92C16.22,3.31,16.28,1.67,15.3,0.7z M7.66,10.1 l-2.14,0.37L5.9,8.34l4.99-4.99l1.77,1.77L7.66,10.1z M14.3,3.47l-0.94,0.94l-1.77-1.77l0.94-0.94c0.29-0.29,0.67-0.45,1.05-0.45 c0.32,0,0.62,0.12,0.83,0.33C14.9,2.07,14.85,2.92,14.3,3.47z M13.2,8H14v5c0,1.1-0.9,2-2,2H3c-1.1,0-2-0.9-2-2V4c0-1.1,0.9-2,2-2 h5v0.8H3C2.34,2.8,1.8,3.34,1.8,4v9c0,0.66,0.54,1.2,1.2,1.2h9c0.66,0,1.2-0.54,1.2-1.2V8z"/>
  </symbol>

  <symbol id="delete" viewBox="0 0 16 16">
    <path fill="currentColor" d="M15.2,4.33v0.35C15.2,5.41,14.61,6,13.88,6H7.43V4.75h6.45 c0.04,0,0.08-0.03,0.08-0.08V4.33c0-0.04-0.03-0.08-0.08-0.08h-2.95l-0.11-1.3c-0.03-0.36-0.37-0.65-0.76-0.65h-3.1 c-0.4,0-0.73,0.28-0.76,0.65l-0.11,1.3H3.12c-0.04,0-0.08,0.03-0.08,0.08v0.35c0,0.04,0.03,0.08,0.08,0.08h0.69h0.44V12 c0,0.96,0.79,1.75,1.75,1.75h5c0.96,0,1.75-0.79,1.75-1.75V8H14v4c0,1.65-1.35,3-3,3H6c-1.65,0-3-1.35-3-3V5.97 c-0.67-0.07-1.2-0.61-1.2-1.3V4.33C1.8,3.59,2.39,3,3.12,3h1.8l0.01-0.16c0.09-1,0.97-1.79,2.01-1.79h3.1 c1.04,0,1.92,0.79,2.01,1.79L12.07,3h1.8C14.61,3,15.2,3.59,15.2,4.33z"/>
  </symbol>

  <symbol id="reset" viewBox="0 0 16 16">
    <path fill="currentColor" d="M8,1.25C4.27,1.25,1.25,4.27,1.25,8S4.27,14.75,8,14.75s6.75-3.02,6.75-6.75S11.73,1.25,8,1.25z M11.42,10.58l-0.85,0.85 L8,8.85l-2.58,2.58l-0.85-0.85L7.15,8L4.58,5.42l0.85-0.85L8,7.15l2.58-2.58l0.85,0.85L8.85,8L11.42,10.58z"/>
  </symbol>

  <symbol id="plus" viewBox="0 0 16 16">
    <path fill="none" stroke="currentColor" stroke-width="2" d="M3,8h10 M8,3v10"/>
  </symbol>

  <symbol id="angle-left" viewBox="0 0 16 16">
    <path fill="none" stroke="currentColor" stroke-width="1.5" d="M10,14 L4,8l6-6"/>
  </symbol>

  <symbol id="angle-right" viewBox="0 0 16 16">
    <path fill="none" stroke="currentColor" stroke-width="1.5" d="M6,2 l6,6l-6,6"/>
  </symbol>

  <symbol id="split-horizontal" viewBox="0 0 16 16">
    <path fill="currentColor" d="M1,9h14v6H1V9z M1,1v6h14V1H1z"/>
  </symbol>

  <symbol id="split-vertical" viewBox="0 0 16 16">
    <path fill="currentColor" d="M7,1v14H1V1H7z M9,1v14h6V1H9z"/>
  </symbol>

  <symbol id="split-none" viewBox="0 0 16 16">
    <path fill="currentColor" d="M15,15H1V1h14V15z"/>
  </symbol>

  <symbol id="settings-automate" viewBox="0 0 24 24">
    <path fill="currentColor" d="M16.3,3.99C14.56,5,12.86,5.98,11.13,6.98V5.25c-0.98,0.12-1.86,0.44-2.68,0.94 C7.64,6.67,6.97,7.31,6.41,8.1c-0.66-0.46-1.3-0.91-1.97-1.38c1.67-2.27,3.89-3.55,6.68-3.89V1C12.86,2.01,14.56,2.99,16.3,3.99 M20.01,16.3c1.01-1.75,1.99-3.45,2.99-5.18c-0.58,0-1.12,0-1.66,0c-0.13,0-0.19-0.03-0.21-0.17c-0.22-1.93-0.99-3.63-2.27-5.09 c-0.47-0.53-0.99-1-1.6-1.42c-0.46,0.66-0.91,1.3-1.37,1.95c1.6,1.18,2.55,2.73,2.86,4.72h-1.74C18.02,12.86,19,14.56,20.01,16.3 M2.83,12.88c0.34,2.79,1.62,5.01,3.89,6.68c0.47-0.68,0.92-1.32,1.37-1.97c-1.6-1.17-2.55-2.73-2.86-4.73h1.74 C5.98,11.13,5,9.43,3.99,7.7c-1,1.74-1.98,3.44-2.99,5.19H2.83z M7.7,20.01c1.74,1,3.45,1.99,5.19,2.99v-1.83 c2.79-0.34,5.01-1.61,6.67-3.88c-0.67-0.47-1.31-0.92-1.96-1.38c-1.18,1.6-2.73,2.55-4.72,2.85v-1.74 C11.14,18.02,9.44,19,7.7,20.01"/>
  </symbol>

  <symbol id="settings-clean" viewBox="0 0 24 24">
    <path fill="currentColor" d="M15.75,16.67c-0.6,1.78-1.21,3.56-1.81,5.33c-0.2-0.09-0.36-0.19-0.54-0.24 c-0.14-0.04-0.3-0.03-0.43,0c-0.26,0.06-0.47,0-0.62-0.23c-0.19-0.3-0.62-0.48-0.97-0.41c-0.26,0.05-0.45-0.04-0.58-0.27 c-0.17-0.32-0.57-0.52-0.94-0.49c-0.29,0.03-0.46-0.07-0.56-0.33c-0.12-0.29-0.52-0.54-0.86-0.54c-0.34,0-0.47-0.09-0.59-0.4 c-0.1-0.28-0.49-0.55-0.81-0.57c-0.33-0.02-0.46-0.12-0.54-0.43c-0.08-0.3-0.43-0.59-0.76-0.63c-0.32-0.04-0.43-0.17-0.5-0.46 c-0.08-0.36-0.33-0.58-0.68-0.68c-0.39-0.12-0.42-0.17-0.49-0.55c-0.06-0.34-0.3-0.57-0.64-0.7c-0.07-0.03-0.15-0.04-0.22-0.08 c-0.27-0.17-0.28-0.35-0.03-0.53c1.55-1.1,3.09-2.21,4.65-3.32C9.95,13.69,12.57,15.51,15.75,16.67z M17.46,8.06 c-0.68-0.24-1.25-0.63-1.71-1.17c-0.06-0.07-0.19-0.13-0.29-0.14c-0.62-0.03-1.18,0.16-1.69,0.47c-0.95,0.57-1.89,1.17-2.83,1.76 c-0.34,0.21-0.66,0.46-1.01,0.7c1.83,2.03,4.01,3.55,6.58,4.6c0.49-1.45,0.96-2.87,1.26-4.33c0.12-0.58,0.13-1.16-0.11-1.71 C17.63,8.17,17.54,8.09,17.46,8.06z M21,3.03c0.02,0.63-0.47,1.39-1.06,1.65c-0.07,0.03-0.14,0.09-0.19,0.16 c-0.14,0.17-0.28,0.35-0.4,0.53c-0.1,0.15-0.2,0.18-0.36,0.11c-0.48-0.2-0.89-0.48-1.22-0.87c-0.09-0.1-0.1-0.17-0.01-0.27 c0.08-0.09,0.15-0.2,0.22-0.29c0.16-0.21,0.27-0.43,0.35-0.69c0.2-0.65,0.65-1.12,1.35-1.31C20.4,1.86,20.97,2.29,21,3.03z M20.58,3.17c0.06-0.4-0.27-0.73-0.72-0.73c-0.37,0.03-0.67,0.24-0.9,0.56c-0.11,0.16-0.11,0.3,0.01,0.45 c0.23,0.28,0.51,0.48,0.86,0.6c0.18,0.06,0.35,0.04,0.44-0.14C20.39,3.67,20.53,3.43,20.58,3.17z M16.05,6.61 c0.37,0.48,0.83,0.81,1.39,1.01c0.06,0.02,0.18,0.02,0.21-0.01c0.29-0.36,0.56-0.74,0.8-1.06c-0.53-0.37-1.03-0.72-1.55-1.07 C16.64,5.82,16.35,6.21,16.05,6.61z"/>
  </symbol>

  <symbol id="settings-developer" viewBox="0 0 24 24">
    <path fill="currentColor" d="M22,3H2C1.45,3,1,3.45,1,4v16c0,0.55,0.45,1,1,1h20c0.55,0,1-0.45,1-1V4 C23,3.45,22.55,3,22,3z M9.5,4.25c0.69,0,1.25,0.56,1.25,1.25S10.19,6.75,9.5,6.75S8.25,6.19,8.25,5.5S8.81,4.25,9.5,4.25z M6.5,4.25c0.69,0,1.25,0.56,1.25,1.25S7.19,6.75,6.5,6.75S5.25,6.19,5.25,5.5S5.81,4.25,6.5,4.25z M2.25,5.5 c0-0.69,0.56-1.25,1.25-1.25S4.75,4.81,4.75,5.5S4.19,6.75,3.5,6.75S2.25,6.19,2.25,5.5z M21,19H3V8h18V19z M6.94,16.44l-0.88-0.88 l2.06-2.06l-2.06-2.06l0.88-0.88l2.94,2.94L6.94,16.44z M16,16h-5v-1h5V16z"/>
  </symbol>

  <symbol id="settings-display" viewBox="0 0 24 24">
    <path fill="currentColor" d="M20,21.5c0,0.28-0.23,0.5-0.5,0.5h-15C4.23,22,4,21.78,4,21.5S4.23,21,4.5,21H7 c2,0,3,0,3-2c0-1,0-1,0-1h4c0,0,0,0,0,1c0,2,1,2,3,2h2.5C19.77,21,20,21.22,20,21.5z M23,4v11c0,1.1-0.9,2-2,2H3c-1.1,0-2-0.9-2-2 V4c0-1.1,0.9-2,2-2h18C22.1,2,23,2.9,23,4z M21,4H3v10h18V4z"/>
  </symbol>

  <symbol id="settings-shortcuts" viewBox="0 0 24 24">
    <path fill="currentColor" d="M22,4H2C0.9,4,0,4.9,0,6v12c0,1.1,0.9,2,2,2h20c1.1,0,2-0.9,2-2V6 C24,4.9,23.1,4,22,4z M15,7h2v2h-2V7z M11,7h2v2h-2V7z M15,11v2h-2v-2H15z M7,7h2v2H7V7z M11,11v2H9v-2H11z M3,7h2v2H3V7z M5,11h2 v2H5V11z M18,17H6v-2h12V17z M19,13h-2v-2h2V13z M21,9h-2V7h2V9z"/>
  </symbol>

  <symbol id="settings-tabs" viewBox="0 0 24 24">
    <path fill="currentColor" d="M23,9h-7c-0.55,0-1.14-0.43-1.32-0.95l-1.37-4.1C13.14,3.43,12.55,3,12,3H5 C4.45,3,3.86,3.43,3.68,3.95l-1.37,4.1C2.14,8.57,1.55,9,1,9s-1,0.45-1,1v10c0,0.55,0.45,1,1,1h22c0.55,0,1-0.45,1-1V10 C24,9.45,23.55,9,23,9z M22,19H2v-7h20V19z M15.85,4.94C15.66,4.42,15.95,4,16.5,4H20c0.55,0,1.16,0.42,1.35,0.94l0.8,2.13 C22.34,7.58,22.05,8,21.5,8H18c-0.55,0-1.16-0.42-1.35-0.94L15.85,4.94z"/>
  </symbol>

  <symbol id="section-rules" viewBox="0 0 32 32">
    <path fill="currentColor" d="M19.41,1H3v17h2V3h12v10h10v16H15.14l-1.43,2H29V10.59L19.41,1z M19,3.41L26.59,11H19V3.41z M3,27l4,4H3V27z M20.2,16.9 L10.16,30.28l-7.22-7.22l2.12-2.12l4.78,4.78L17.8,15.1L20.2,16.9z"/>
  </symbol>

  <symbol id="modal-close" viewBox="0 0 13 13">
    <path fill="currentColor" d="M7.21,6.5l4.15,4.15l-0.71,0.71L6.5,7.21l-4.15,4.15l-0.71-0.71L5.79,6.5L1.65,2.35l0.71-0.71L6.5,5.79l4.15-4.15l0.71,0.71L7.21,6.5z"/>
  </symbol>

  <symbol id="modal-compress" viewBox="0 0 13 13">
    <path fill="currentColor" d="M0.8,7H6v5.2H5V8.71l-3.65,3.65l-0.71-0.71L4.29,8H0.8V7z M12.35,1.35l-0.71-0.71L8,4.29V0.8H7V6h5.2V5H8.71L12.35,1.35z"/>
  </symbol>

  <symbol id="modal-expand" viewBox="0 0 13 13">
    <path fill="currentColor" d="M12,1v5.2h-1V2.71L7.35,6.35L6.65,5.65L10.29,2H6.8V1H12z M5.65,6.65L2,10.29V6.8H1V12h5.2v-1H2.71l3.65-3.65L5.65,6.65z"/>
  </symbol>

  <symbol id="busy-indicator" viewBox="0 0 24 24">
    <g fill="none" stroke="currentColor" stroke-width="2" stroke-linecap="round">
      <line opacity="1.00" x1="12" y1="1" x2="12" y2="5"/>
      <line opacity="0.20" x1="17.5" y1="2.47" x2="15.3" y2="6.28"/>
      <line opacity="0.20" x1="21.53" y1="6.5" x2="17.72" y2="8.7"/>
      <line opacity="0.28" x1="23" y1="12" x2="19" y2="12"/>
      <line opacity="0.36" x1="17.72" y1="15.3" x2="21.53" y2="17.5"/>
      <line opacity="0.44" x1="15.3" y1="17.72" x2="17.5" y2="21.53"/>
      <line opacity="0.52" x1="12" y1="19" x2="12" y2="23"/>
      <line opacity="0.60" x1="8.7" y1="17.72" x2="6.5" y2="21.53"/>
      <line opacity="0.68" x1="6.28" y1="15.3" x2="2.47" y2="17.5"/>
      <line opacity="0.76" x1="5" y1="12" x2="1" y2="12"/>
      <line opacity="0.84" x1="2.47" y1="6.5" x2="6.28" y2="8.7"/>
      <line opacity="0.92" x1="6.5" y1="2.47" x2="8.7" y2="6.28"/>
    </g>
  </symbol>

</svg>