<svg xmlns="http://www.w3.org/2000/svg" xmlns:xlink="http://www.w3.org/1999/xlink" width="0" height="0">

  <symbol id="helix" viewBox="0 0 200 150">
    <path fill="currentColor" d="M105.9,137.5c-21,1.3-40.3-8.8-53.1-27.8C38.5,88.7,37.3,66,49.3,42.3 C57.5,26,70.8,16.2,88.6,13c1-0.2,2-0.3,3-0.4c22.3-2.4,45.1,12.9,50.9,34c5.7,20.8,0.9,38.2-14,51.7c-5.3,4.7-11.8,7.6-18.9,8.4h0 c-10.6,1.1-21.2-2.8-28.3-10.4c-12.3-13.1-12.4-34.7-0.4-47.2c3.3-3.4,7.7-5.5,12.4-6c5.1-0.5,10.1,0.9,14,4 c7.8,6.1,9.5,17.6,4.1,26.1c-1.2,1.9-2.7,3-4.2,3.1c-0.9,0.1-1.8-0.1-2.7-0.6c-3.1-1.8-2.3-4.9-1.1-7.1c3.2-6.1,2.3-11.7-2.7-14.8 c-1.9-1.2-4.1-1.8-6.3-1.5c-3.3,0.4-6.4,2.4-8.8,5.7c-7.6,10.8-5.3,26.6,4.9,34.6c5.1,3.9,11.4,5.7,17.9,5 c6.6-0.7,12.6-3.8,17.1-8.8c14.2-16,13.2-41.1-2.1-56.1c-8.2-8-19.8-11.9-31.7-10.6c-8.9,0.9-17.3,4.8-23.8,10.8 c-10.4,9.7-16.7,23.9-17.1,39c-0.4,15,5,29.6,14.8,39.8c11.8,12.3,28.4,18.3,45.5,16.5c12.7-1.3,24.6-7.1,33.7-16.1 c1.4-1.4,2.7-2.8,3.9-4.3c0.6-0.7,1.2-1.4,1.9-2.1c1-1.1,2.3-1.8,3.6-2c1.1-0.1,2.1,0.2,3,0.9c3.1,2.5,1.3,5.6,0.4,6.8 C146.4,126.2,129,135.1,105.9,137.5L105.9,137.5z"/>
  </symbol>

  <symbol id="lightbulb" viewBox="0 0 200 150">
    <path fill="currentColor" d="M99,112.8c-2.6-0.2-6.2-0.4-9.6-0.9c-4.2-0.7-7.3-3.1-9.3-6.8 c-1.4-2.6-2.7-5.3-3.9-8c-1.1-2.5-2.6-4.4-4.9-6c-13.1-9.3-20.1-22-21.1-37.9c-1.6-26.2,18.7-49.5,45-51.9 c25.6-2.3,48.5,14.3,53.8,39.1c4.2,19.5-3.8,39.6-20.3,50.9c-1.8,1.3-3.1,2.8-4,4.8c-1.6,3.2-3.1,6.5-4.9,9.5 c-2.6,4.4-6.7,6.4-11.6,6.8C105.4,112.5,102.6,112.6,99,112.8 M89.5,76.8c-1.5,0-2.6,0.1-3.6,0c-1.1-0.2-2.1-0.4-3.1-0.9 c-3.3-1.4-5.2-4.4-5-7.6c0.2-3.1,3.2-6.7,6.2-7.5c1.8-0.4,3.4,0,4.7,1.2c1,1,1.8,2.3,2.6,3.5c0.6,1,1.1,2.2,1.7,3.4 c1.3-1,2.4-1.8,3.3-2.5c-1.3-2.7-2.7-5.2-3.6-7.8c-1.3-4.2,0.9-7.7,5.1-8.6c1.2-0.3,2.5-0.3,3.7-0.2c5.4,0.5,8.1,4.2,6.7,9.4 c-0.7,2.5-2.1,4.8-3.3,7.4c0.7,0.6,1.6,1.4,2.7,2.3c0.4-1.1,0.7-2,1.1-2.9c2.3-5.6,5.9-6.4,10.5-2.4c2.2,1.9,3.5,4.2,2.9,7.1 c-0.6,3.1-2.8,4.9-5.8,5.8c-1.4,0.4-2.9,0.4-4.6,0.7c-1.3,9-2.7,18-4.1,27.2c3.1-0.5,4-0.8,5.3-3c1.6-2.7,3-5.6,4.4-8.5 c1.5-3.2,3.5-5.8,6.5-7.9c13.7-9.7,19.8-23.1,17.9-39.6c-2.7-23.6-25-39.8-48.8-36C76.4,12,62.9,24.6,59,41.1 c-3.9,16.2,2.5,33.6,16.3,43.2c4.1,2.8,6.7,6.3,8.5,10.7c0.9,2.2,2,4.3,3.2,6.4c1.4,2.6,3.9,3.2,7.1,3.1 C92.6,95.2,91,86.1,89.5,76.8 M100.5,70.7c-1.7,1.2-3.2,2.3-4.8,3.3c-0.9,0.5-1,1-0.8,2c1.1,5.2,2.2,10.5,3.1,15.7 c0.7,4.3,1.2,8.6,1.8,13h1.7c0.1-0.3,0.1-0.4,0.2-0.6c1.5-9.5,2.9-18.9,4.4-28.4c0-0.3-0.1-0.8-0.3-1 C104.1,73.4,102.3,72.1,100.5,70.7 M100.5,62c0.7-1.4,1.4-2.2,1.7-3.2c0.3-0.9,0.6-2.3,0.1-2.7c-0.6-0.5-1.9-0.4-2.9-0.4 c-1.2,0-1.5,0.8-1.1,1.8C99,58.9,99.7,60.2,100.5,62 M85.4,66.8c-0.3-0.1-0.5-0.1-0.8-0.2c-0.3,0.9-1.1,1.9-0.8,2.6 c0.4,1.4,1.9,1.8,3.6,1.7C86.7,69.5,86,68.2,85.4,66.8 M114.9,67.4c-0.2,0-0.4,0.1-0.6,0.1c-0.4,1.1-0.7,2.2-1.1,3.4 c0.2,0.2,0.3,0.3,0.5,0.5c0.9-0.6,2-1,2.5-1.7C116.4,69.3,115.4,68.2,114.9,67.4 M89.7,142.2c0.4,4.1,5.2,7,10.9,6.8 c5.2-0.2,9.5-3.2,9.6-6.8H89.7 M113,118.1c-4.7,0-19.5,0-25.8,0c-1.9,0-3.4,1.3-3.4,3.2c0,1.8,1.4,3.2,3.3,3.2c4.7,0,19.5,0,25.8,0 c1.9,0,3.4-1.3,3.4-3.2C116.4,119.5,114.9,118.2,113,118.1z M113,130.5c-4.7,0-19.5,0-25.8,0c-1.9,0-3.4,1.3-3.4,3.2 c0,1.8,1.4,3.2,3.3,3.2c4.7,0,19.5,0,25.8,0c1.9,0,3.4-1.3,3.4-3.2C116.4,131.9,114.9,130.5,113,130.5z"/>
  </symbol>

  <symbol id="attachment" viewBox="0 0 200 150">
    <path fill="currentColor" d="M165.8,45c-0.5-2.6-2-4.2-4.7-4.1c-2.6,0.2-4.1,1.9-4.2,4.6c-0.1,1.6,0,49.7,0,64.7c0,2.4,0,6.7,0,6.7 c0,4.4-2.9,7.3-7.4,7.3c-10.2,0-19.7,0-30,0H50.7c-4.7,0-8-3-8-7.7l0.2-22c0-13.3,0-26.6,0-39.9c0-1.5,0.2-3,0.3-4.6h59.6h7.1 c0.4,0,0.8,0,1.2,0v0h7.9c0-1.7,0-2.9,0-3.7c0-1.3,0,0.4,0-1v-0.2c0-4,0-6,0.5-10c0.7-6.3,4.1-10.1,10.5-10.1c0,0,0,0,0,0 c0.1,0,0.2,0,0.4,0c5.7,0.1,9.5,4,10.1,10.3c0.2,2.3,0.2,2.6,0.2,4.9c0,0.6,0,1.3,0,1.9c0,0.1,0,0.3,0,0.5c0,0.1,0,0.2,0,0.3 c0,0.1,0,0.1,0,0.2c0,3.6,0,12.1,0,20.5c0,0,0,0,0,0.1c0,0.6,0,1.1,0,1.7c0,0.4,0,0.8,0,1.2c0,0.1,0,0.1,0,0.2c0,7.9,0,15.2,0,17.5 c0,2.6-1.3,4.1-3.7,4.2c-0.1,0-0.2,0-0.3,0c-2.3,0-2.7-1.4-2.9-4.1c0-0.1,0-0.2,0-0.2l0-0.2c0-1.7,0-4.8,0-8.4c0-0.5,0-1,0-1.5 c0-0.3,0-0.6,0-0.9c0-10,0-22.7,0-25.3c0-2.5-1.6-4.2-4-4.2h0c-2.4,0-4,1.6-4,4.2l0.1,36.5c0,0.6,0,1.2,0.1,1.8 c0.3,5.9,4.5,10.6,10.8,10.6c0.1,0,0.3,0,0.4,0c6.3-0.2,11.4-5.2,11.5-11.3c0.1-3.2,0.1-10,0.1-17.7c0,0,0-0.1,0-0.1 c0-1.3,0-2.6,0-3.9c0-0.2,0-0.3,0-0.5c0-0.3,0-0.6,0-0.9c0-0.3,0-0.6,0-0.9c0-0.3,0-0.7,0-1c0-0.5,0-1,0-1.5c0-0.2,0-0.3,0-0.4 c0-0.4,0-0.8,0-1.2c0-0.2,0-0.4,0-0.7c0-0.4,0-0.9,0-1.3c0-0.1,0-0.3,0-0.4c0-0.5,0-1.1,0-1.6c0-0.2,0-0.3,0-0.5c0-0.4,0-0.8,0-1.3 c0-0.2,0-0.3,0-0.5c0-0.4,0-0.8,0-1.3c0-0.1,0-0.2,0-0.4c0-0.5,0-1.1,0-1.6c0-0.1,0-0.3,0-0.4c0-0.4,0-0.8,0-1.1c0-0.2,0-0.3,0-0.5 c0-0.4,0-0.8,0-1.1c0-0.1,0-0.2,0-0.4c0-0.5,0-1,0-1.4c0,0,0-0.1,0-0.1c0-0.4,0-0.8,0-1.2c0-0.1,0-0.3,0-0.4c0-0.3,0-0.6,0-0.9 c0-0.1,0-0.3,0-0.4c0-0.4,0-0.8,0-1.1c0,0,0,0,0-0.1c0-0.3,0-0.7,0-1c0-0.1,0-0.2,0-0.3c0-0.2,0-0.5,0-0.7c0-0.1,0-0.2,0-0.3 c0-0.3,0-0.6,0-0.8c-0.1-5.6-2.1-10.2-5.8-13.5c-5.9-5.3-11.9-6.5-19.5-3.5c-7.4,3-11.6,9.1-11.9,17.6c0,1.2-0.1,2.9-0.1,4.9 c-1.8,0-4.9,0-8.1,0c-0.2,0-0.4,0-0.6,0c-1,0-2,0-3,0c0-3.1,0-5.6,0-8c0-8.9-5.5-14.7-14.4-14.8c-12.3-0.2-24.7-0.2-37,0 c-8.8,0.1-14.2,5.8-14.2,14.5c0,11.5,0,22.9,0,34.4c0,9.2,0,18.4,0,27.5v22c0,9.8,6.8,16.7,16.6,16.7l68.9,0c10.2,0,19.7,0,30,0 c9.5,0,16.4-6.9,16.4-16.3v-2.2v-5.3v-0.1v-0.2V48.3C165.9,47.2,166,46.1,165.8,45z M43,30.7c0.2-2.9,2-4.7,4.9-4.7 c13,0,26-0.1,39,0c3.2,0,4.9,1.9,5,5.3c0.1,3,0,6,0,9.3h-49C42.9,37.2,42.7,34,43,30.7z"/>
  </symbol>

  <symbol id="scheduling" viewBox="0 0 200 150">
    <path fill="currentColor" d="M96.7,150c-0.5,0-1,0-1.5,0c-4.7-0.1-9.8-0.1-15.9-0.1c-3.6,0-7.2,0-10.8,0 l-0.6,0c-3.8,0-7.6,0-11.4,0H56c-12.3,0-19-6.8-19-19.1c0-24.2,0-48.5,0-72.7l0-25.9c0-12.8,6.1-19.2,18.8-19.6c0.3,0,0.6,0,1-0.1 l1.9-0.2v-1.3c0-0.7,0-1.4,0-2.1c0-1.5,0-3,0-4.4c0.1-2.7,1.7-4.6,4-4.6l0.2,0c2.4,0.1,3.9,1.8,3.9,4.6c0,1.4,0,2.8,0,4.3l0,3.5 h66.2c0,0,0-2.8,0-3.5c0-1.6,0-3.1,0-4.6c0.1-2.5,1.6-4.2,3.9-4.3l0.1,0c2.2,0,3.9,1.7,4,4.1c0.1,0.8,0,1.5,0,2.3 c0,0.4,0,0.7,0,1.1c0,0.8,0,5.1,0,5.1l4,0c0.5,0,0.9,0,1.4,0c8.8,0.2,16,7.3,16.1,15.8c0.2,10.9,0.2,22,0.2,32.7 c0,4.8,0,9.5,0,14.3c0,3.8,0,7.5,0.1,11.3c0.1,8.2,0.1,16.8,0,25.1c-0.1,8.4-4.3,15.5-12.6,21.8c-10.4,7.9-22.6,11.4-33,13.9 C109.9,149.2,103.2,150,96.7,150 M80.5,141.5c6.7,0,12.2,0.1,17.3,0.3c0.2,0,0.4,0,0.5,0c8.4,0,21.9-8.8,24.8-18.1 c1.8-6,1.7-12.1-0.3-20c-0.4-1.7-0.2-3.2,0.6-4.2c0.7-0.9,1.8-1.4,3.1-1.4c0.6,0,1.1,0.1,1.7,0.2c2.8,0.8,5.6,1.6,8.2,2.4l0.3,0.1 c1.5,0.4,3.1,0.9,4.6,1.3c2.6,0.8,5.3,1.5,7.9,2.2l5.2,1.5V54.7H45.1l0,23.2c0,17.9,0,35.9,0,53.8c0,6.6,3.4,10,10.1,10h0.6 c4,0,8,0,12-0.1l0.3,0C72.3,141.5,76.4,141.5,80.5,141.5 M132.4,110.1c0.8,8.8-0.9,18-5,23.5c-1.3,1.8-5.9,5.5-5.9,5.5 s5.8-2.2,8.9-3.6c9.4-4.2,18.7-8.3,23.6-19.5l0.6-1.5l-22.4-6.5L132.4,110.1z M55.1,20.9c-5.8,0-9.4,2.7-9.7,7.4 c-0.3,3.8-0.2,7.7-0.2,11.4c0,1.6,0.1,3.3,0.1,4.9v1.4h109.5v-1.4c0-1.5,0-3,0-4.5l0-0.1c0-3.3,0-6.3,0-9.5c-0.1-6-3.6-9.8-9.1-9.8 c-1.1,0-2.2,0.1-3.4,0.4l-1.1,0.3v1.1c0,0.5,0,1.1,0,1.7c0,1.2,0,2.4,0,3.6c-0.1,2.3-1.8,4-4,4l-0.2,0c-2.3-0.1-3.8-1.7-3.9-4.1 c0-1.2,0-2.4,0-3.7c0-0.6,0-1.2,0-1.8V21H66.8c0,0,0,2.6,0,3.2c0,1.2,0,2.3,0,3.5c-0.1,2.6-1.6,4.3-3.9,4.4l-0.2,0 c-2.3,0-3.9-1.7-4-4.3c-0.1-1.2,0-2.4,0-3.6c0-0.6,0-1.1,0-1.7v-1.3l-1.2-0.1C56.6,21,55.8,20.9,55.1,20.9"/>
  </symbol>

  <symbol id="template" viewBox="0 0 200 150">
    <path fill="currentColor" d="M114.1,36c0,2.1-1.6,3.6-3.7,3.6c-6.9,0-44.4,0-49.6,0C58.6,39.5,57,38,57,36 c0-2.1,1.6-3.6,3.7-3.6c6.9,0,44.4,0,49.6,0C112.5,32.5,114.1,34,114.1,36z M110.4,50.1c-5.2,0-42.7,0-49.6,0 c-2.2,0-3.7,1.5-3.7,3.6c0,2,1.6,3.5,3.7,3.6c5.2,0,42.7,0,49.6,0c2.2,0,3.7-1.5,3.7-3.6C114.1,51.6,112.5,50.1,110.4,50.1z M110.4,85.4c-5.2,0-42.7,0-49.6,0c-2.2,0-3.7,1.5-3.7,3.6c0,2,1.6,3.5,3.7,3.6c5.2,0,42.7,0,49.6,0c2.2,0,3.7-1.5,3.7-3.6 C114.1,87,112.5,85.4,110.4,85.4z M110.4,67.8c-5.2,0-42.7,0-49.6,0c-2.2,0-3.7,1.5-3.7,3.6c0,2,1.6,3.5,3.7,3.6 c5.2,0,42.7,0,49.6,0c2.2,0,3.7-1.5,3.7-3.6C114.1,69.3,112.5,67.8,110.4,67.8z M166,41.3v93.6c0,8.7-6.4,15.1-15.2,15.1 c-9.8,0-13,0-22.8,0l-50.2,0c-9.1,0-15.5-6.4-15.5-15.5c0-0.4,0-1.1,0-1.8h7.7c0,0.8,0,1.4,0,1.8c0,4.8,3,7.8,7.8,7.8l50.2,0 c9.8,0,13,0,22.8,0c4.6,0,7.5-2.9,7.5-7.4V41.3c0-4.7-2.9-7.7-7.6-7.7l-13,0V109c0,8.7-6.4,15.1-15.2,15.1c-9.8,0-13,0-22.8,0 l-50.2,0c-9.1,0-15.5-6.4-15.5-15.5c0-36.8,0-56.4,0-93.2C34,6.3,40.3,0,49.4,0l37.5,0l35.5,0c9,0,15.3,6.3,15.3,15.3V26l13,0 C159.7,26,166,32.3,166,41.3z M130.1,15.3c0-4.7-2.9-7.7-7.6-7.7l-35.5,0l-37.5,0c-4.8,0-7.7,3-7.7,7.8c0,36.8,0,56.4,0,93.2 c0,4.8,3,7.8,7.8,7.8l12.8,0h0.4l37.1,0c9.8,0,13,0,22.8,0c4.6,0,7.6-2.9,7.6-7.4V28.8v-7.6V15.3z"/>
  </symbol>

  <symbol id="signature" viewBox="0 0 200 150">
    <path fill="currentColor" d="M144.2,85.4c0.4-0.3,0.8-0.5,1.1-0.8c2.6-2.3,5.2-4.6,7.7-6.8 c5.6-4.9,11.3-10,17.1-15c1-0.9,1.6-2.1,1.7-3.4c0.1-1.1-0.3-2.2-1-3c-0.7-0.8-1.5-1.2-2.4-1.3c-1.1-0.1-2.3,0.5-3.5,1.6l-1.7,1.5 c-7.8,6.9-15.7,13.8-23.5,20.7c-0.3,0.3-0.5,0.6-0.7,1.1c-0.1,0.2-0.2,0.4-0.4,0.6l-0.3,0.5l-34.1-38.8l-5.7,5.6l4.4,5 c11.4,12.9,29.4,33.3,40.9,46.4c1.2,1.3,1.8,2.9,1.6,4.5c-0.1,1.5-0.8,2.9-2,3.9c-1.1,0.9-2.5,1.4-4,1.3c-1.6-0.1-3.2-0.9-4.4-2.2 c-1.8-2-3.5-4-5.3-6c-1.2-1.3-2.3-2.7-3.5-4c-0.5-0.6-5.7-6.2-6.3-6.8c-1.4-1.6-2.9-3.3-4.4-4.8c-0.8-0.8-1.6-1.2-2.5-1.3 c-1-0.1-1.9,0.4-2.7,1.2c-1.6,1.6-1.5,3.5,0.1,5.3c2.2,2.6,9.2,10.2,11.5,12.7c2.7,3.1,5.5,6.2,8.2,9.3c1.2,1.4,1.8,3.1,1.7,4.7 c-0.1,1.5-0.9,2.8-2.1,3.8c-1.1,0.9-2.5,1.4-3.9,1.3c-1.7-0.1-3.3-1-4.6-2.4c-2.7-3.1-5.4-6.3-8.2-9.5l0.2,0.6 c-1.9-2.2-10.1-11.5-12.1-13.7c-0.8-0.9-1.7-1.3-2.6-1.4c-1-0.1-2,0.4-2.8,1.3c-1.5,1.7-1.4,3.3,0.3,5.3c1.6,1.9,3.3,3.8,5,5.6 c3,3.4,10.8,11.9,13.8,15.4c0.9,1,1.5,2.4,1.6,3.8c0.3,2.4-0.1,5.6-2.5,6.6c-0.9,0.4-1.8,0.5-2.7,0.5c-1.6-0.1-3-0.8-4.2-2.2 c-2.1-2.4-11.4-12.8-13.5-15.2c-2.2-2.5-4.4-5-6.6-7.4c-0.9-1-0.8-1.7-0.5-2.8c1.1-3.3,0.8-6.7-0.8-9.5c-1.6-2.9-4.4-4.9-7.8-5.6 c-0.3-0.1-0.7-0.2-1.1-0.3c-0.2-0.1-0.5-0.1-0.8-0.2l-0.8-0.2l0.6-0.5c0.3-0.3,0.7-0.5,0.9-0.8c0.6-0.5,1.1-0.8,1.5-1.3 c3-2.9,4.2-6.4,3.6-10.5c-0.8-5.4-5.3-9.3-10.8-9.7c-2.8-0.2-5.5,0.6-7.7,2.4c-1.3,1-2.4,2.1-3.5,3.4c-0.5,0.6-1.1,1.1-1.6,1.7 L58,76l-1.1-1.2c-0.4-0.4-0.7-0.8-1-1.1L35.6,51.1c-0.5-0.5-0.9-1.1-1.5-1.5c-0.6-0.5-1.3-0.8-2-0.8c-1-0.1-1.9,0.3-2.7,1.1 c-1.7,1.6-1.6,3.5,0.2,5.6c6.9,7.9,11.4,12.6,20.8,23.2c0.2,0.3,0.6,0.5,1.1,0.7c0.2,0.1,0.4,0.2,0.6,0.3l0.5,0.3l-0.4,0.4 c-1.9,1.8-3.6,3.3-5.3,4.8c-1.4,1.2-6.6,6.3-7.9,7.6c-3.1,3-4.3,7.2-3.3,11.2c1,4.1,4.1,7.3,8.3,8.5c0.9,0.3,1.9,0.4,2.9,0.5 c0.5,0.1,1,0.1,1.5,0.2l0.5,0.1l-0.1,0.5c-1.3,4.6-0.6,8.3,2.2,11.5c2.2,2.5,4.9,3.9,8.1,4.1c0.9,0.1,1.9,0,2.9-0.1l0.5-0.1l0,0.5 c0,0.5-0.1,1-0.1,1.4c-0.1,1-0.2,1.9-0.1,2.7c0.5,4.7,3.1,8.1,7.5,9.8c1.3,0.5,2.5,0.8,3.8,0.9c3,0.2,5.8-0.9,8.3-3.1 c1.3-1.2,4.2-3.9,6.6-6.2l-5-5.2c-0.1,0.1-0.2,0.2-0.2,0.2c-2.1,2.1-4.3,4.2-6.6,6.2c-0.9,0.8-2.1,1.2-3.3,1.1 c-1.4-0.1-2.8-0.8-3.7-1.9c-1.8-2.2-1.6-5.1,0.5-7c2.2-2,7.4-7.1,9.6-9c0.9-0.8,1.8-1.6,2.8-2.4l0.7-0.6l11.7,12.8l0.3,0.3 c2.7,2.7,10.8,12.3,16.1,12.4c1.5,0,3.1-0.1,4.7-0.5c4.9-1.4,7.2-5.9,8.5-11.5l0.1-0.4l0.6,0c8.1,0.5,13.6-3.8,14.8-11.6 c0.2-1.4,1-1.6,2-1.7c6.1-0.6,10.3-4.9,11.8-10.8c1.6-6.3-6.6-15.3-9.8-19l-0.3-0.4l0.4-0.3C143.8,85.7,144,85.6,144.2,85.4z M51.5,105.5c-0.7,0.6-1.6,1.1-2.2,1.4c-0.2,0.1-0.9,0.1-1.2,0.1c-2.1,0-3.9-1.4-4.9-3c-0.9-1.4-1.1-3-0.6-4.5 c0.5-1.3,1.4-2.3,2.1-2.9C50.1,91.8,59.6,83,65,78.2l1.7-1.5c0.5-0.5,1.1-0.9,1.8-1.3c0.8-0.4,1.8-0.5,2.8-0.4c1.6,0.2,3,1.1,4,2.3 c1.6,2.1,1.6,5.2-0.1,6.8c-0.6,0.6-1.2,1.1-1.8,1.6c-0.2,0.2-0.5,0.4-0.7,0.6l-8,7.5C60.6,97.5,56,101.6,51.5,105.5z M79.8,106.5 c-3.9,3.5-12,11.1-16.8,15.3c-0.6,0.6-1.5,0.7-2,0.9c-0.1,0-0.2,0-0.2,0.1l-0.3,0.1l-0.3,0c-1.9-0.3-3.6-1.3-4.7-2.8 c-0.9-1.4-1.2-3-0.8-4.4c0.3-1.1,1-2.2,2-3c3.5-3.2,10.9-10.2,14.4-13.2l0.4-0.3c0.8-0.7,1.4-1.1,2.1-1.3c0.8-0.3,1.6-0.4,2.3-0.3 c1.5,0.2,2.8,1,3.9,2.4C81.5,101.9,81.5,105,79.8,106.5z M62.2,44c-1.5-4.5-0.1-8.7,3.8-12.1c2.2-1.9,4.5-3.8,6.8-5.8 c1.1-0.9,2.1-1.8,3.2-2.7l0.3-0.3l-0.3-0.3c-0.9-1.1-1.8-2.1-2.7-3.1c-2-2.3-3.9-4.4-5.8-6.6c-0.9-1-1.2-2.1-1.1-3.1 c0.1-1,0.7-1.9,1.8-2.6c0.7-0.5,1.4-0.7,2.1-0.6c1,0.1,1.9,0.6,2.8,1.5c1.8,2,3.6,4,5.4,6l1.3,1.5c0.3,0.4,0.6,0.8,1,1.2 c0.2,0.2,0.4,0.5,0.6,0.8l0.3,0.4l2.5-2.2c2-1.8,4-3.5,5.9-5.3c2.6-2.3,5.5-3.8,8.8-4.6c1.6-0.4,3.2-0.5,4.6-0.4 c3.4,0.2,6.3,1.7,8.8,4.4c1.6,1.8,3.2,3.6,4.8,5.6c0.7,0.9,1.5,1.7,2.2,2.6l0.3,0.3l2.9-2.5c2-1.8,3.9-3.5,5.8-5.2 c1-0.9,2-1.3,3-1.3c0.5,0,0.9,0.2,1.4,0.4c1.2,0.6,2.1,1.7,2.3,2.8c0.2,1.1-0.2,2.1-1.1,2.9c-3.5,3.3-7.5,6.8-12.5,11 c-0.6,0.5-1.3,0.8-2.1,0.8c-1-0.1-2.1-0.7-3.2-1.9c-0.6-0.6-1.1-1.2-1.7-1.9c-2.2-2.4-4.4-4.8-6.4-7.4c-1.7-2.2-3.5-3.3-5.6-3.4 c-1.6-0.1-3.4,0.4-5.6,1.7c-0.8,0.5-1.7,1.1-2.7,2c-3.1,2.7-6.2,5.4-9.2,8.1c-4.5,4-9,8-13.6,11.9c-1.4,1.2-2.8,2.9-2,5.1 c0.9,2.4,2.5,3.9,4.6,4.5c0.3,0.1,0.5,0.1,0.8,0.1c1.4,0.1,2.6-0.8,3.6-1.6c4.3-3.8,8.7-7.7,13-11.5c2.6-2.3,5.3-4.7,7.9-7 c0.8-0.7,1.9-1.5,3.1-1.4c0.3,0,0.5,0.1,0.8,0.2c1.4,0.4,2.4,1.5,2.7,2.8c0.3,1.3-0.2,2.6-1.2,3.6C103.3,32.4,90,44.9,90,44.9 c-2.4,2.1-4.7,4.2-7.1,6.3c-2.4,2.2-5,3.2-8,3.1c-0.3,0-0.7,0-1,0c-0.7,0-1.2-0.1-1.6-0.3C67.3,52.5,63.8,49,62.2,44z"/>
  </symbol>

  <symbol id="tracking" viewBox="0 0 200 150">
    <path fill="currentColor" d="M137.5,64.2c-1.3-2.4-4.1-3.2-6.3-1.9c-2.3,1.3-3,4-1.7,6.4 c4.3,7.8,6,10.7,9.3,16.5c0.7,1.3,1.9,2.1,3.2,2.4c1.5,0.4,3.2,0,4.5-1.3c6.4-6.1,31.2-29.6,36-34.2c2-1.9,2.1-4.7,0.3-6.6 c-1.8-1.9-4.6-1.9-6.6,0c-0.3,0.3-2.5,2.5-2.9,2.8c-2.7-4.5-7.6-7.3-13.7-7.3l-0.1,0l-5.1,0V17c0-9.4-6.6-16-16-16L94.3,1L52.1,1 C42.6,1,36,7.6,36,17.1c0,38.6,0,77.1,0,115.7c0,9.5,6.6,16.2,16.2,16.2l55.4,0c10.3,0,20.5,0,30.8,0c9.2,0,15.9-6.6,15.9-15.8V109 l5.2,0c9.2,0,15.9-6.6,15.9-15.8V68.7c-2.2,2.1-5,4.8-8,7.6v16.9c0,4.7-3.1,7.8-7.9,7.8l-35.2,0c-5,0-8.2-3.1-8.2-8.2 c0-12.9,0-16.9,0-17.8s0-4.9,0-17.8c0-5,3.1-8.1,8.1-8.1l35.2,0l0.1,0c3.9,0,6.6,1.9,7.6,5.1c-7.2,6.8-17.1,16.2-23,21.8 C141.6,71.4,140,68.6,137.5,64.2z M124.2,41c-9.5,0-16.1,6.6-16.1,16.1c0,13,0,16.9,0,17.8c0,1,0,4.9,0,17.8 c0,9.5,6.7,16.2,16.2,16.2l22,0v24.2c0,4.7-3.1,7.8-7.9,7.8c-10.3,0-20.5,0-30.8,0l-55.4,0c-5,0-8.2-3.1-8.2-8.2 c0-38.6,0-77.1,0-115.7c0-5,3.1-8.1,8.1-8.1l42.2,0l44.1,0c4.9,0,8,3.1,8,8v24L124.2,41z M65.4,39.5c0-2.2,1.6-3.7,3.9-3.7 c4.5,0,21.6,0,35,0c2.5,0,0.8,1.6,0.8,1.6l0,0c-1.8,1.6-3.2,3.5-4.2,5.9c-13.3,0-28.4,0-31.7,0C67.1,43.2,65.4,41.6,65.4,39.5z M65.4,58c0-2.2,1.6-3.7,3.9-3.7c4,0,17.7,0,30.1,0c0,2.9,0,5.3,0,7.5c-12.9,0-27,0-30.1,0C67.1,61.7,65.4,60.1,65.4,58z M65.4,95 c0-2.2,1.6-3.7,3.9-3.7c4,0,17.7,0,30.1,0c0,2,0,4.2,0,6.6c0,0.3,0,0.6,0,0.9c-12.9,0-27,0-30.2,0C67.1,98.7,65.4,97.1,65.4,95z M107.5,117.3c-14.3,0-34.4,0-38.2,0c-2.2,0-3.9-1.6-3.9-3.7c0-2.2,1.6-3.7,3.9-3.7c4.3,0,20,0,33.2,0c1.4,2.4,3.3,4.4,5.6,5.9 C108.2,115.8,109.4,117.1,107.5,117.3z M65.4,76.5c0-2.2,1.6-3.7,3.9-3.7c4,0,17.7,0,30.1,0c0,1.1,0,1.7,0,2c0-0.2,0-0.3,0-0.3 c0,0.1,0,0.5,0,0.6c0,0,0-0.1,0-0.3c0,0.6,0,2.1,0,5.5c-12.9,0-27,0-30.1,0C67.1,80.2,65.4,78.6,65.4,76.5z"/>
  </symbol>

  <symbol id="cleaner" viewBox="0 0 200 150">
    <path fill="currentColor" d="M168.6,20.5c0.5-1.2,1.4-3.4,1.4-5.7C169.8,5.2,161.4,0,153.8,0c-1.6,0-3.2,0.2-4.6,0.7c-4.2,1.4-7.3,4.4-9.4,9.2 c-4.2,9.5-8.5,19-12.8,28.3c-1.4,3.1-2.8,6.2-4.2,9.3c-0.2,0-0.5,0-0.7,0c-13.3,0-23.9,6.1-31.6,18.2c-0.2,0.2-0.3,0.5-0.5,0.8 c-20.1,29.2-39.3,54-58.6,75.9l-0.1,0.2c-0.9,1.2-1.7,3.2-0.8,5c0.4,0.9,1.6,2.4,4.3,2.4c1.7,0,3.4,0,5.1,0l10.4,0c1.5,0,3,0,4.6,0 c1.8,0,3.3-0.7,4.4-2.1c0.9-1.1,1.9-2.2,2.8-3.3c-0.3,1.7,0.2,2.9,0.8,3.6c0.8,1.1,2.1,1.8,3.6,1.8c0.1,0,0.2,0,0.3,0 c3.2,0,6.2,0,9.2,0c3.8,0,7.6,0,11.7,0h0c2.2,0,3.9-1,5-2.9c2.4-4.1,9.4-19.6,11.8-24l-5.5,20.9l-0.1,0.3c-0.2,1.1-0.6,2.7,0.6,4.1 c1.2,1.5,3,1.5,3.9,1.5h3.5h4.3c2.9,0,5.7,0,10,0c2.5,0,4.3-1.3,5-3.7c1.7-5.2,3.8-11.4,5.3-16.3c0,0.3,0,0.6,0,0.9 c0.1,3.9-0.4,9.8-0.4,14c0,0.7,0,2.5,1.3,3.8c0.8,0.8,1.9,1.3,3.3,1.3h3.8c0.5,0,1.2,0,3.5,0c2.5,0,4.3-1.4,4.9-3.9 c0.4-1.7,0.9-3.4,1.3-5.1c0.5-1.8,1-3.6,1.4-5.4c3.5-14,8.1-37.7,9-50.4c0-0.1,0-0.2,0-0.2c0-9.1-3.3-17.5-8.6-24l2.6-6 C158.7,43.5,163.7,32,168.6,20.5z M144.1,133.9c-0.4,1.8-0.9,3.5-1.4,5.3c-0.3,1.3-0.7,2.6-1,3.9c-1.2,0-1.7,0-2.1,0l-1.6,0 l-0.4-25c0.1-2.1-1.3-4-3.2-4.4c-0.2,0-0.5-0.1-0.8-0.1c-1.9,0-3.5,1.2-4,3c-0.1,0.2-0.1,0.4-0.2,0.6c-0.1,0.3-0.2,0.5-0.3,0.8 c0,0-6.7,17.9-9,25c-3.6,0-6.2,0-8.8,0h-6.1l5.9-24.8l0-0.5c-0.2-2.3-1.9-4-4.1-4c-1,0-1.9,0.4-2.2,0.6l-0.6,0.3l-0.4,0.5 c-0.5,0.6-0.9,1.2-1.2,1.7c-0.1,0.1-0.1,0.3-0.2,0.4l-3.3,5.5c-3.7,6.1-8.3,14.1-12,20.3c-3.9,0-7.5,0-11.1,0c-1.7,0-6.6,0-8.4,0 c1.9-3,13.5-17.4,16.2-21.5l0.1-0.1c0.1-0.2,0.3-0.4,0.4-0.6l0.1-0.1c0.3-0.5,1.4-1.8,1.1-3.6c-0.2-1.1-0.4-1.5-1.4-2.1 c-0.6-0.3-1.2-0.5-1.9-0.5c-1.5,0-2.5,0.5-3.2,1.3c-3.2,3.7-6.3,7.4-9.4,11l-4.8,5.6c-3,3.5-6,7-8.9,10.6c-1.4,0-4.1,0-5.5,0 l-10.4,0h-0.1c17.6-20.2,35-42.8,53.2-69c0.1,0,0.2,0.1,0.3,0.1l58.1,21.4C149.7,108.4,147.2,121.3,144.1,133.9z M152.5,86 c-0.1,0.5-0.1,1.1-0.2,1.6c0,0.2,0,0.5-0.1,0.7l-54.4-20c7-9.4,16.2-14.4,28-13.2C140.9,56.7,152.3,70.5,152.5,86z M146.9,51.1 l-1.6,3.8l-0.2-0.2l-0.1,0.2c-4-3-8.6-5.3-13.7-6.4c0-0.1,0.1-0.2,0.1-0.3c0,0-0.1,0-0.1,0l-0.6-0.1l3.6-7.9 c4.1-9.1,8.4-18.6,12.6-27.9c1.2-2.8,2.7-4.3,4.9-5.1c0.6-0.2,1.4-0.3,2.2-0.3c3.2,0,8.6,2.2,8.6,6.9c0,1-0.5,2.4-0.7,2.9 C156.9,27.9,152.1,38.9,146.9,51.1z"/>
  </symbol>

  <symbol id="reminder" viewBox="0 0 200 150">
    <path fill="currentColor" d="M80.9,129.6c-5.5-0.5-11-0.9-16.4-1.5c-7.4-0.9-14.7-2.1-21.5-5.5 c-1.3-0.7-2.5-1.5-3.7-2.4c-3.4-2.6-3.8-6.3-3.5-10.2c1.3-18.6,7.1-35.7,15.7-52c5.5-10.3,12.1-19.8,21-27.5 c4.9-4.3,10.3-7.7,16.5-9.8c0.2-0.1,0.5-0.2,0.8-0.3c-1.8-5.4-0.8-10,4-13.4c3.5-2.4,8.3-2.4,11.8,0.1c4.5,3.3,5.6,7.8,3.9,13.1 c1.2,0.4,2.4,0.8,3.5,1.3c10,4.1,17.7,11.1,24.3,19.5c10.6,13.4,17.7,28.6,22.4,44.9c2.5,8.6,4.1,17.4,4.4,26.4 c0.1,2.7-0.6,5.2-2.9,6.7c-2.6,1.7-5.4,3.2-8.3,4.2c-7.6,2.6-15.6,3.6-23.6,4.6c-3.3,0.4-6.7,0.7-10.1,1 c-2.6,10-8.9,16.1-19.4,16.1C89.8,144.8,83.7,139,80.9,129.6 M96.2,121.1c3.8-0.1,9-0.2,14.2-0.5c11.4-0.6,22.7-1.5,33.9-4.1 c3.3-0.8,6.5-2.1,9.8-3.2c0.8-0.3,1.5-0.7,1.4-1.9c-0.4-3.4-0.4-6.8-1-10.1c-2.7-16.4-8.5-31.6-17.2-45.7 c-5.5-8.9-11.9-16.9-20.6-22.7c-10-6.7-20.3-7.5-31-1.5c-6.4,3.7-11.6,8.7-16.2,14.4c-9.5,11.9-15.9,25.3-20.4,39.7 c-2.6,8.3-4.3,16.8-4.7,25.6c-0.1,2.2,0.8,3.3,2.5,3.9c3.5,1.1,7,2.4,10.6,3.1C69.9,120.7,82.4,121,96.2,121.1 M89,129.6 c1.8,4.8,6.7,9.2,11.5,8.8c5.1-0.3,9.7-4.9,10.5-8.8H89z M103.1,15.8c0-1.9-1.6-3.4-3.5-3.3c-2,0-3.4,1.5-3.4,3.5 c0,1.9,1.6,3.5,3.5,3.4C101.6,19.3,103.1,17.7,103.1,15.8"/>
  </symbol>

  <symbol id="contact" viewBox="0 0 200 150">
    <path fill="currentColor" d="M176.2,71.6c-0.7-0.4-1.3-1.1-1.3-1.8v-2v-3.2l0-37.8l0,0.8c0-9.5-6.6-16.1-16.1-16.1H71.1c-9.5,0-16.2,6.7-16.2,16.2v35.5 H41.2c-9.5,0-16.1,6.6-16.1,16.1l0-0.8l0,37.8v3.2v2c0,0.7-0.6,1.4-1.3,1.8c-3.6,1.9-6.4,5.3-6,8.5c0.4,3,2.4,6,7.3,6.5 c0.2,0,2.4,0.3,5.3,0.3c3.5,0,6.7-0.4,9.5-1.1c1.8-0.5,3.4-1.1,4.8-1.9c2.5,1.1,5.4,1.8,8.8,1.8l1.7,0.1h10.7h63.4 c9.2,0,15.8-6.7,15.8-15.9c0-6.6,0-16.8,0-26h-8c0,9.2,0,19.5,0,26c0,4.8-3.1,7.9-7.8,7.9H67.9H55.7c-6.4,0-10.5-1.9-11.1-2.1 c-2.5,2-9.2,4.3-13.7,4.3c-1.2,0-2.4,0-3.6,0c-0.1,0-0.2-0.1-0.4-0.1c-2.2-0.2-1.1-1-0.7-1.3c0.4-0.2,0.8-0.4,0.9-0.4 c3.5-1.5,5.2-3.2,5.7-7c0,0,0,0,0,0c0.1-0.3,0.2-3.3,0.2-3.6v-3l0-37.8l0,0.8c0-5,3.1-8.1,8.1-8.1H55c0.6,8.5,7,14.6,15.7,14.6 l75.8-0.1c3.4,0,6.3-0.7,8.8-1.8c1.4,0.8,3,1.4,4.8,1.9c2.8,0.8,6,1.1,9.5,1.1c2.9,0,5.1-0.3,5.3-0.3c4.9-0.5,6.9-3.5,7.3-6.5 C182.7,76.9,179.8,73.4,176.2,71.6z M173,79.9c-0.2,0-0.3,0-0.4,0.1c-1.1,0-2.4,0-3.6,0c-4.5,0-11.2-2.2-13.7-4.3 c-0.6,0.1-4.7,2.1-11.1,2.1H70.7c-4.3,0-7.2-2.5-7.7-6.6h0c-0.1-0.4-0.1-0.8-0.1-1.3c0-10.3,0,6.5,0-3.8v-2.9V27.6 c0-5,3.2-8.2,8.2-8.2h87.7c5,0,8.1,3.1,8.1,8.1l0-0.8l0,37.8v3c0,0.3,0.1,3.3,0.2,3.6c0,0,0,0,0,0c0.5,3.7,2.2,5.5,5.7,7 c0.1,0,0.5,0.2,0.9,0.4C174.1,78.9,175.2,79.8,173,79.9z"/>
  </symbol>

  <symbol id="salesforce" viewBox="0 0 200 150">
    <path fill="currentColor" d="M167.6,141.7c-2-4.8-3.8-9.7-6.5-14c-9.1-15-22.5-24.4-39.3-29.1 c-0.8-0.2-1.8-0.5-2.3-1.2c-1.7-2.1-3.2-4.4-4.7-6.6c-0.7-1-0.5-1.9,0.1-3c3.9-7,7.8-14.1,11.5-21.3c0.9-1.7,1.6-2.4,3.6-2.5 c8.6-0.4,13-7.9,9.5-15.7c-0.3-0.6-0.4-1.4-0.5-2c-0.7-10.5-4-20.1-10.6-28.4C113.6-0.7,85.9-0.6,71.6,18c-6,7.8-8.8,16.9-9.7,26.6 c-0.1,0.9-0.4,1.9-1,2.6c-3.8,5.4-1.7,13,4.3,15.7c0.6,0.3,1.3,0.6,1.7,1.2c6,9.5,15.2,13.4,25.8,14.7c1.4,0.2,2.6,0.3,3.8,1.5 c1.7,1.7,4.6,1.3,6.3-0.5c1.7-1.8,1.7-4.5,0.2-6.4c-1.5-1.9-4.2-2.2-6.3-0.9c-0.9,0.5-2,1-2.9,0.9c-3.9-0.8-7.7-1.9-11.6-3 c-0.6-0.2-1.3-0.6-1.4-1.1c-1.9-5.5-3.8-11-5.6-16.5c-0.3-0.9,0-1.5,1-1.9c13.3-5.6,26.6-11.1,38.3-20c0.2,0.5,0.3,1,0.5,1.5 c2.2,5.6,4.8,11,9.8,14.8c0.5,0.4,0.9,1.5,0.8,2.2c-0.4,3-0.8,6.1-1.7,8.9c-3.3,9.5-8.2,18.3-13.7,26.7c-1.9,2.9-2,5.5-0.3,8.2 c2.1,3.2,4.4,6.2,6.6,9.3c0.4,0.6,0.9,1.4,0.8,1.9c-1.4,5.9-4.4,10.7-10.3,12.9c-8,3.1-20.6,1.7-25.5-11.9 c-0.5-1.4-0.2-2.4,0.7-3.5c2-2.4,4-4.9,5.8-7.5c2.2-3.2,3-6.6,0.2-10c-0.5-0.6-0.9-0.5-1.6-0.8c-2-0.8-4.1-1.3-6.6-2.1 c0.9,1.6,1.3,2.1,2.2,3.1c3,3.6,1.8,6.7-0.8,9.9c-2,2.5-4.1,4.4-7.3,5.2c-2.7,0.7-5.4,1.9-7.9,3.1c-16.7,8.1-28.6,20.4-33.8,38.7 c-0.8,2.9,0.2,4.4,3.2,4.4c43,0,86,0,129.1,0C167.4,146,168.7,144.4,167.6,141.7z M106.6,19.3c-2.3-0.5-4.5-0.7-6.8-0.7 c-13,0-23.7,8.2-27.9,21.5l-0.1,0.3c-0.2,0.7-0.4,1.4-0.6,2c-0.6,2.4-0.8,2.5-3.3,2.7l-0.5,0v-0.5C67.4,29,80,13.8,95,11.5 c1.9-0.3,3.7-0.4,5.5-0.4c12,0,21.9,6.4,27.9,17.9c1.6,3.1,2.6,6.4,3.7,9.7c0.4,1.4,0.9,2.8,1.3,4.1c0.2,0.5,0.2,1,0.2,1.4 c0,0.2,0,0.4,0,0.6l0,0.5l-0.5,0c-0.1,0-0.2,0-0.3,0c-2.6,0-3.2-1.6-3.8-3.4C125.2,29.1,117.9,21.7,106.6,19.3z M41,138.4 c2.7-10.7,20.1-27,33.4-30.8c4.7,12.3,13.2,18.5,25.3,18.5c0.2,0,0.4,0,0.6,0c12.3-0.2,20.3-6.6,24-18.9 c12.1,2.7,29.2,18.5,34.1,31.2H41z"/>
  </symbol>

  <symbol id="subscription" viewBox="0 0 200 150">
    <path fill="currentColor" d="M100,141c-36.4,0-66-29.6-66-66c0-36.4,29.6-66,66-66s66,29.6,66,66C166,111.4,136.4,141,100,141 M100,17.4 c-31.8,0-57.6,25.8-57.6,57.6c0,31.8,25.8,57.6,57.6,57.6s57.6-25.8,57.6-57.6C157.6,43.2,131.8,17.4,100,17.4 M81.7,107 c0.5,0,1-0.1,1.6-0.3c1.6-0.7,2.3-1.8,2.3-3.7c0-18.7,0-37.3,0-56c0-2.3-1.6-3.9-3.7-3.9c-2.1,0-3.7,1.7-3.7,3.9 c0,5.5,0,10.9,0,16.4l0,16h-3l-7.3,0c-1.6,0-3.2,0-4.7,0l-0.1,0c-2.1,0-3.2,0.7-4,2.3c-0.7,1.6-0.3,3.6,1,4.9 c4.8,4.8,9.6,9.6,14.4,14.4l4.7,4.7C79.9,106.6,80.8,107,81.7,107 M126,43c-5.5,0-18.3,0-25.6,0c-2.3,0-3.9,1.6-3.9,3.8 c0,2.1,1.7,3.7,3.9,3.7c5.5,0,18.3,0,25.6,0c2.3,0,3.9-1.6,3.9-3.8C130,44.6,128.3,43,126,43z M126,98.8c-5.5,0-18.3,0-25.6,0 c-2.3,0-3.9,1.6-3.9,3.8c0,2.1,1.7,3.7,3.9,3.7c5.5,0,18.3,0,25.6,0c2.3,0,3.9-1.6,3.9-3.8C130,100.4,128.3,98.8,126,98.8z M126,80.2c-5.5,0-18.3,0-25.6,0c-2.3,0-3.9,1.6-3.9,3.8c0,2.1,1.7,3.7,3.9,3.7c5.5,0,18.3,0,25.6,0c2.3,0,3.9-1.6,3.9-3.8 C130,81.8,128.3,80.2,126,80.2z M126,61.6c-5.5,0-18.3,0-25.6,0c-2.3,0-3.9,1.6-3.9,3.8c0,2.1,1.7,3.7,3.9,3.7c5.5,0,18.3,0,25.6,0 c2.3,0,3.9-1.6,3.9-3.8C130,63.2,128.3,61.6,126,61.6z"/>
  </symbol>

  <symbol id="analytics" viewBox="0 0 200 150">
    <path fill="currentColor" d="M195,64.3c0,2.2-1.6,3.7-3.9,3.7c-0.2,0-0.4,0-0.5,0c-0.4,0-0.9,0.1-1.4,0.1 c0,0-22.1,0-37-0.1c-3.1,0-6.2,0-9.4,0c-2.1,0.4-3,1.8-3.6,3.2c-4.4,10.7-9.3,22.1-13.1,31.2c-0.9,2.1-2.2,3.2-3.9,3.2 c-0.5,0-1.1-0.1-1.6-0.3c-2-0.6-2.9-2.1-2.9-4.6c0-5.5,0-11,0-16.6l0-35.8l0-10.4l-3.6,9.7l-1.6,4.2c-0.7,1.7-1.3,3.5-2,5.2 L81,133.8c-0.1,0.3-0.2,0.5-0.3,0.8c-0.8,1.9-2.2,2.9-3.9,2.9c-0.3,0-0.5,0-0.8-0.1c-2.1-0.4-3.4-2-3.4-4.3c0-6.1,0-12.4,0-18.4 l0-7.3v-42l-6.7,19.2c-1.3,3.1-3.1,4.2-6.6,4.2c-0.4,0-2.8,0-4.4,0c-12.2,0-41.5,0-46.1,0C6.6,88.8,5,87.2,5,85 c0-2.2,1.6-3.7,3.9-3.7c15.5,0,31.1,0,46.6,0c0,0,0.1,0,0.1,0c2-0.1,3.3-1,4.1-2.8c2.8-6.9,5.7-13.7,8.6-20.6 c1.5-3.6,3-7.2,4.5-10.8c0.8-1.8,1.9-2.7,3.6-2.9c0.1,0,0.3,0,0.4,0c2.3,0,3.9,1.7,4,4.2c0.1,2.1,0,4.2,0,6.2c0,0.9,0,1.8,0,2.7 v43.7v10.7l3.8-10.2c0,0,2.6-6.7,3.2-8.3l4.7-12.2c8.3-21.7,16.7-43.4,25-65.1c0.7-1.9,1.6-2.8,2.9-3.3c0.5-0.1,0.9-0.2,1.4-0.2 c2.3,0,4.1,1.9,4.1,4.5c0,6.4,0,12.9,0,19.3l0,36.2v9.3l3.8-8.6l0.6-1.5c0.3-0.7,0.6-1.5,1-2.2c0.7-1.7,1.4-3.5,2.1-5.2 c1.3-3.1,3.4-3.7,6.3-3.7c0.3,0,0.5,0,0.8,0l0,0c5.4,0,45.3,0,50.8,0C193.4,60.6,195,62.2,195,64.3z"/>
  </symbol>

  <symbol id="context" viewBox="0 0 200 150">
    <path fill="currentColor" d="M116.2,56.1l-9.1-6.1c-2.3-1.5-2.6-2.3-1.2-4.3c1.8-2.5,3.4-5.1,3.8-8.2 c0.2-1.7,0.3-3.4,0-5c-0.9-5-4.5-7.7-9.6-7.6c-5.2-0.1-8.8,2.6-9.6,7.6c-0.3,1.6-0.2,3.4,0,5c0.4,3.1,2,5.7,3.8,8.2 c1.4,1.9,1.1,2.7-1.2,4.3l-9.1,6.1c-2.5,2.3-1.7,6.5,1,7.8c1,0.5,2.9,1,8.9,1h6.1h6.1c6,0,8-0.6,8.9-1 C117.8,62.5,118.7,58.4,116.2,56.1 M112.4,149l-55.3,0c-9.5,0-16.1-6.7-16.1-16.2c0-38.6,0-77.1,0-115.7C41,7.6,47.6,1,57,1l42.1,0 l44,0c9.4,0,15.9,6.6,15.9,16v116.2c0,9.1-6.7,15.8-15.8,15.8C132.9,149,122.7,149,112.4,149 M99.1,9L57,9c-5,0-8.1,3.1-8.1,8.1 c0,38.6,0,77.1,0,115.7c0,5.1,3.1,8.2,8.1,8.2l55.3,0c10.2,0,20.5,0,30.7,0c4.8,0,7.9-3.1,7.9-7.8V17c0-5-3-8-8-8L99.1,9z M133.9,82.3c0,2.2-1.6,3.7-3.9,3.7c-7.2,0-54.2,0-59.7,0c-2.2,0-3.9-1.6-3.9-3.7c0-2.2,1.6-3.7,3.9-3.7c7.2,0,54.2,0,59.7,0 C132.2,78.5,133.9,80.1,133.9,82.3z M133.9,119.3c0,2.2-1.6,3.7-3.9,3.7c-7.2,0-54.2,0-59.7,0c-2.2,0-3.9-1.6-3.9-3.7 c0-2.2,1.6-3.7,3.9-3.7c7.2,0,54.2,0,59.7,0C132.2,115.6,133.9,117.2,133.9,119.3z M133.9,100.8c0,2.2-1.6,3.7-3.9,3.7 c-7.2,0-54.2,0-59.7,0c-2.2,0-3.9-1.6-3.9-3.7c0-2.2,1.6-3.7,3.9-3.7c7.2,0,54.2,0,59.7,0C132.2,97,133.9,98.6,133.9,100.8z"/>
  </symbol>

</svg>